name processed_emg_signals						
nRows=51						
nColumns=7						
 						
endheader						
time	RGLTMED	RRF	RADDLONG	RST	RTA	RGM
1.285	0.050314991	0.070639716	0.037219105	0.028692136	0.116731934	0.25650737
1.286	0.050680657	0.070180589	0.036949593	0.028788227	0.117000753	0.253355728
1.287	0.051063078	0.069727099	0.036676192	0.028879806	0.117250038	0.250229293
1.288	0.051461381	0.06927977	0.036399159	0.028966667	0.117480143	0.24712863
1.289	0.051874691	0.068839147	0.036118769	0.029048617	0.117691445	0.244054243
1.29	0.05230213	0.068405795	0.035835313	0.029125469	0.117884342	0.241006586
1.291	0.052742819	0.067980299	0.035549102	0.02919705	0.118059253	0.237986057
1.292	0.053195878	0.067563266	0.035260462	0.029263197	0.118216619	0.234993006
1.293	0.053660429	0.06715532	0.034969741	0.029323755	0.118356898	0.232027735
1.294	0.054135595	0.066757102	0.034677298	0.029378582	0.11848057	0.229090501
1.295	0.0546205	0.066369274	0.034383514	0.029427547	0.118588131	0.226181522
1.296	0.055114272	0.065992512	0.034088786	0.029470526	0.118680097	0.223300975
1.297	0.055616045	0.06562751	0.033793525	0.029507408	0.118756998	0.220449002
1.298	0.056124954	0.065274977	0.033498161	0.029538091	0.118819384	0.217625715
1.299	0.056640142	0.064935637	0.033203141	0.029562485	0.118867818	0.214831193
1.3	0.057160758	0.064610227	0.032908925	0.02958051	0.118902877	0.212065491
1.301	0.057685957	0.064299499	0.03261599	0.029592093	0.118925154	0.20932864
1.302	0.058214902	0.064004215	0.032324829	0.029597175	0.118935253	0.206620651
1.303	0.058746766	0.06372515	0.032035949	0.029595706	0.118933793	0.203941519
1.304	0.059280729	0.06346309	0.031749873	0.029587646	0.118921402	0.201291222
1.305	0.059815982	0.063218829	0.031467135	0.029572963	0.118898719	0.198669729
1.306	0.060351727	0.062993172	0.031188287	0.029551639	0.118866395	0.196076999
1.307	0.060887175	0.06278693	0.03091389	0.029523662	0.118825086	0.193512988
1.308	0.06142155	0.062600922	0.030644522	0.029489032	0.11877546	0.190977646
1.309	0.06195409	0.062435973	0.03038077	0.029447758	0.118718189	0.188470924
1.31	0.062484043	0.062292914	0.030123234	0.029399859	0.118653954	0.185992775
1.311	0.063010672	0.062172578	0.029872526	0.029345363	0.118583439	0.183543154
1.312	0.063533253	0.062075804	0.029629269	0.029284308	0.118507336	0.181122027
1.313	0.064051077	0.062003432	0.029394094	0.029216741	0.118426336	0.178729363
1.314	0.064563452	0.061956303	0.029167643	0.029142718	0.118341139	0.176365148
1.315	0.065069698	0.061935259	0.028950568	0.029062304	0.11825244	0.174029373
1.316	0.065569152	0.061941142	0.028743527	0.028975573	0.118160942	0.17172205
1.317	0.06606117	0.06197479	0.028547188	0.028882609	0.118067344	0.169443202
1.318	0.06654512	0.062037042	0.028362224	0.028783501	0.117972345	0.16719287
1.319	0.067020391	0.062128731	0.028189316	0.02867835	0.117876645	0.164971114
1.32	0.067486387	0.062250685	0.028029147	0.028567263	0.117780938	0.162778013
1.321	0.067942532	0.062403729	0.027882409	0.028450356	0.117685919	0.160613664
1.322	0.068388265	0.062588679	0.027749796	0.028327751	0.117592276	0.158478186
1.323	0.068823047	0.062806345	0.027632004	0.02819958	0.117500693	0.156371721
1.324	0.069246353	0.063057528	0.027529733	0.028065979	0.11741185	0.154294429
1.325	0.06965768	0.063343017	0.027443683	0.027927094	0.117326418	0.152246495
1.326	0.070056544	0.063663595	0.027374556	0.027783074	0.117245062	0.150228124
1.327	0.070442479	0.064020029	0.027323051	0.027634077	0.117168438	0.148239542
1.328	0.070815038	0.064413074	0.027289869	0.027480265	0.117097196	0.146280999
1.329	0.071173794	0.064843473	0.027275705	0.027321808	0.117031971	0.144352764
1.33	0.071518341	0.065311953	0.027281254	0.027158878	0.116973392	0.142455127
1.331	0.071848289	0.065819224	0.027307204	0.026991655	0.116922073	0.140588398
1.332	0.072163272	0.06636598	0.027354239	0.026820321	0.116878618	0.138752907
1.333	0.072462941	0.066952896	0.027423036	0.026645064	0.116843618	0.136948999
1.334	0.072746968	0.067580629	0.027514265	0.026466074	0.116817647	0.135177041
1.335	0.073015045	0.068249814	0.027628587	0.026283548	0.116801268	0.133437411
